<svg xmlns="http://www.w3.org/2000/svg" width="720" height="720" viewBox="0 0 1000 1000"><rect x="0" y="0" width="1000" height="1000" fill="#1c1a15"/><polyline points="0,250 300,430 520,520 740,470 1000,640" fill="none" stroke="#4a7fa0" stroke-width="14" stroke-opacity="0.6" stroke-linecap="round" stroke-linejoin="round"/><line x1="467" y1="0" x2="467" y2="385" stroke="#8a7a5c" stroke-width="5.5" stroke-opacity="0.6" stroke-linecap="round"/><line x1="1000" y1="630" x2="467" y2="385" stroke="#8a7a5c" stroke-width="5.5" stroke-opacity="0.6" stroke-linecap="round"/><line x1="0" y1="630" x2="467" y2="385" stroke="#8a7a5c" stroke-width="5.5" stroke-opacity="0.6" stroke-linecap="round"/><line x1="467" y1="385" x2="479" y2="255" stroke="#a8946e" stroke-width="3.5" stroke-opacity="0.65" stroke-linecap="round"/><line x1="467" y1="385" x2="499" y2="352" stroke="#a8946e" stroke-width="3.5" stroke-opacity="0.65" stroke-linecap="round"/><line x1="467" y1="385" x2="499" y2="397" stroke="#a8946e" stroke-width="3.5" stroke-opacity="0.65" stroke-linecap="round"/><line x1="467" y1="385" x2="545" y2="418" stroke="#a8946e" stroke-width="3.5" stroke-opacity="0.65" stroke-linecap="round"/><line x1="467" y1="385" x2="294" y2="391" stroke="#a8946e" stroke-width="3.5" stroke-opacity="0.65" stroke-linecap="round"/><line x1="467" y1="385" x2="753" y2="384" stroke="#a8946e" stroke-width="3.5" stroke-opacity="0.65" stroke-linecap="round"/><line x1="467" y1="385" x2="459" y2="105" stroke="#a8946e" stroke-width="3.5" stroke-opacity="0.65" stroke-linecap="round"/><line x1="467" y1="385" x2="74" y2="381" stroke="#a8946e" stroke-width="3.5" stroke-opacity="0.65" stroke-linecap="round"/><line x1="467" y1="385" x2="340" y2="312" stroke="#a8946e" stroke-width="3.5" stroke-opacity="0.65" stroke-linecap="round"/><line x1="479" y1="255" x2="499" y2="397" stroke="#a8946e" stroke-width="3.5" stroke-opacity="0.65" stroke-linecap="round"/><line x1="459" y1="105" x2="479" y2="255" stroke="#a8946e" stroke-width="3.5" stroke-opacity="0.65" stroke-linecap="round"/><line x1="753" y1="384" x2="499" y2="397" stroke="#a8946e" stroke-width="3.5" stroke-opacity="0.65" stroke-linecap="round"/><circle cx="467" cy="385" r="8" fill="#d9a441" stroke="#e8dcc0" stroke-width="2"/><polygon points="427,312 531,312 557.7542604189437,159.5802656010911 403.44917165043177,162.78369767046655" fill="#6b82d6" fill-opacity="0.22" stroke="#6b82d6" stroke-width="2" stroke-opacity="0.7"/><polygon points="422,355 496,429 609,352 499,242" fill="#c9a24c" fill-opacity="0.22" stroke="#c9a24c" stroke-width="2" stroke-opacity="0.7"/><polygon points="442,345 442,449 578.5200331367482,475.1200147274437 576.969243514134,320.43077489517066" fill="#d0a040" fill-opacity="0.22" stroke="#d0a040" stroke-width="2" stroke-opacity="0.7"/><polygon points="497.3422787246043,342.5800195585169 455.36181881106563,437.89447574229195 587,518 645,376" fill="#d0a040" fill-opacity="0.22" stroke="#d0a040" stroke-width="2" stroke-opacity="0.7"/><polygon points="497.3422787246043,342.5800195585169 455.36181881106563,437.89447574229195 587,518 645,376" fill="#d0a040" fill-opacity="0.12" stroke="none"/><polygon points="351,443 351,339 217,314 217,468" fill="#8a9ab0" fill-opacity="0.22" stroke="#8a9ab0" stroke-width="2" stroke-opacity="0.7"/><polygon points="696,332 696,436 830,461 830,307" fill="#d09030" fill-opacity="0.22" stroke="#d09030" stroke-width="2" stroke-opacity="0.7"/><polygon points="407,162 511,162 536,28 382,28" fill="#d9483f" fill-opacity="0.22" stroke="#d9483f" stroke-width="2" stroke-opacity="0.7"/><polygon points="131,433 131,329 0,304 0,458" fill="#9a8f7a" fill-opacity="0.22" stroke="#9a8f7a" stroke-width="2" stroke-opacity="0.7"/><polygon points="354.69341275540023,405.23020131077413 425.63790021663897,326.9892166941328 340,202 230,312" fill="#c07a3a" fill-opacity="0.22" stroke="#c07a3a" stroke-width="2" stroke-opacity="0.7"/><polygon points="467,217 586,266 635,385 586,504 467,553 314,538 252,385 348,266" fill="none" stroke="#c8b48a" stroke-width="7" stroke-opacity="0.9"/><circle cx="467" cy="217" r="7" fill="#1c1a15" stroke="#e8dcc0" stroke-width="2.5"/><circle cx="621" cy="449" r="7" fill="#1c1a15" stroke="#e8dcc0" stroke-width="2.5"/><circle cx="313" cy="449" r="7" fill="#1c1a15" stroke="#e8dcc0" stroke-width="2.5"/><rect x="74" y="353" width="16" height="16" rx="3" fill="#2a271f" stroke="#9a8f7a" stroke-width="2"/><rect x="545" y="390" width="16" height="16" rx="3" fill="#2a271f" stroke="#d0a040" stroke-width="2"/><rect x="459" y="77" width="16" height="16" rx="3" fill="#2a271f" stroke="#d9483f" stroke-width="2"/><rect x="465" y="132" width="16" height="16" rx="3" fill="#2a271f" stroke="#d9483f" stroke-width="2"/><rect x="499" y="324" width="16" height="16" rx="3" fill="#2a271f" stroke="#c9a24c" stroke-width="2"/><rect x="505" y="379" width="16" height="16" rx="3" fill="#2a271f" stroke="#c9a24c" stroke-width="2"/><rect x="479" y="227" width="16" height="16" rx="3" fill="#2a271f" stroke="#6b82d6" stroke-width="2"/><rect x="485" y="282" width="16" height="16" rx="3" fill="#2a271f" stroke="#6b82d6" stroke-width="2"/><rect x="487" y="389" width="16" height="16" rx="3" fill="#2a271f" stroke="#d0a040" stroke-width="2"/><rect x="557" y="402" width="16" height="16" rx="3" fill="#2a271f" stroke="#d0a040" stroke-width="2"/><rect x="753" y="356" width="16" height="16" rx="3" fill="#2a271f" stroke="#d09030" stroke-width="2"/><rect x="421" y="226" width="16" height="16" rx="3" fill="#2a271f" stroke="#6b82d6" stroke-width="2"/><rect x="294" y="363" width="16" height="16" rx="3" fill="#2a271f" stroke="#8a9ab0" stroke-width="2"/><rect x="491" y="239" width="16" height="16" rx="3" fill="#2a271f" stroke="#6b82d6" stroke-width="2"/><rect x="300" y="418" width="16" height="16" rx="3" fill="#2a271f" stroke="#8a9ab0" stroke-width="2"/><rect x="759" y="411" width="16" height="16" rx="3" fill="#2a271f" stroke="#d09030" stroke-width="2"/><polygon points="0,0 190,0 0,190" fill="#e8dcc0" fill-opacity="0.05" stroke="none"/><polygon points="1000,0 810,0 1000,190" fill="#e8dcc0" fill-opacity="0.05" stroke="none"/><polygon points="0,1000 190,1000 0,810" fill="#e8dcc0" fill-opacity="0.05" stroke="none"/><polygon points="1000,1000 810,1000 1000,810" fill="#e8dcc0" fill-opacity="0.05" stroke="none"/><polygon points="18,18 982,18 982,982 18,982" fill="none" stroke="#e8dcc0" stroke-width="3" stroke-opacity="0.85"/><polygon points="28,28 972,28 972,972 28,972" fill="none" stroke="#e8dcc0" stroke-width="1" stroke-opacity="0.6"/><circle cx="892" cy="892" r="62" fill="none" stroke="#e8dcc0" stroke-width="1.5"/><circle cx="892" cy="892" r="54" fill="none" stroke="#e8dcc0" stroke-width="0.75"/><path d="M 892 830 L 901 892 L 892 954 L 883 892 Z" fill="#d9a441" stroke="#e8dcc0" stroke-width="0.75" stroke-linejoin="round"/><path d="M 830 892 L 892 901 L 954 892 L 892 883 Z" fill="#e8dcc0" stroke-linejoin="round"/><circle cx="892" cy="892" r="4" fill="#d9a441" stroke="#e8dcc0" stroke-width="0.75"/></svg>