<svg xmlns="http://www.w3.org/2000/svg" width="720" height="720" viewBox="0 0 1000 1000"><rect x="0" y="0" width="1000" height="1000" fill="#f0f2f5"/><line x1="50" y1="0" x2="50" y2="1000" stroke="#1a1a1a" stroke-width="0.75" stroke-opacity="0.14" stroke-linecap="round"/><line x1="100" y1="0" x2="100" y2="1000" stroke="#1a1a1a" stroke-width="0.75" stroke-opacity="0.14" stroke-linecap="round"/><line x1="150" y1="0" x2="150" y2="1000" stroke="#1a1a1a" stroke-width="0.75" stroke-opacity="0.14" stroke-linecap="round"/><line x1="200" y1="0" x2="200" y2="1000" stroke="#1a1a1a" stroke-width="0.75" stroke-opacity="0.14" stroke-linecap="round"/><line x1="250" y1="0" x2="250" y2="1000" stroke="#1a1a1a" stroke-width="0.75" stroke-opacity="0.14" stroke-linecap="round"/><line x1="300" y1="0" x2="300" y2="1000" stroke="#1a1a1a" stroke-width="0.75" stroke-opacity="0.14" stroke-linecap="round"/><line x1="350" y1="0" x2="350" y2="1000" stroke="#1a1a1a" stroke-width="0.75" stroke-opacity="0.14" stroke-linecap="round"/><line x1="400" y1="0" x2="400" y2="1000" stroke="#1a1a1a" stroke-width="0.75" stroke-opacity="0.14" stroke-linecap="round"/><line x1="450" y1="0" x2="450" y2="1000" stroke="#1a1a1a" stroke-width="0.75" stroke-opacity="0.14" stroke-linecap="round"/><line x1="500" y1="0" x2="500" y2="1000" stroke="#1a1a1a" stroke-width="0.75" stroke-opacity="0.14" stroke-linecap="round"/><line x1="550" y1="0" x2="550" y2="1000" stroke="#1a1a1a" stroke-width="0.75" stroke-opacity="0.14" stroke-linecap="round"/><line x1="600" y1="0" x2="600" y2="1000" stroke="#1a1a1a" stroke-width="0.75" stroke-opacity="0.14" stroke-linecap="round"/><line x1="650" y1="0" x2="650" y2="1000" stroke="#1a1a1a" stroke-width="0.75" stroke-opacity="0.14" stroke-linecap="round"/><line x1="700" y1="0" x2="700" y2="1000" stroke="#1a1a1a" stroke-width="0.75" stroke-opacity="0.14" stroke-linecap="round"/><line x1="750" y1="0" x2="750" y2="1000" stroke="#1a1a1a" stroke-width="0.75" stroke-opacity="0.14" stroke-linecap="round"/><line x1="800" y1="0" x2="800" y2="1000" stroke="#1a1a1a" stroke-width="0.75" stroke-opacity="0.14" stroke-linecap="round"/><line x1="850" y1="0" x2="850" y2="1000" stroke="#1a1a1a" stroke-width="0.75" stroke-opacity="0.14" stroke-linecap="round"/><line x1="900" y1="0" x2="900" y2="1000" stroke="#1a1a1a" stroke-width="0.75" stroke-opacity="0.14" stroke-linecap="round"/><line x1="950" y1="0" x2="950" y2="1000" stroke="#1a1a1a" stroke-width="0.75" stroke-opacity="0.14" stroke-linecap="round"/><line x1="0" y1="50" x2="1000" y2="50" stroke="#1a1a1a" stroke-width="0.75" stroke-opacity="0.14" stroke-linecap="round"/><line x1="0" y1="100" x2="1000" y2="100" stroke="#1a1a1a" stroke-width="0.75" stroke-opacity="0.14" stroke-linecap="round"/><line x1="0" y1="150" x2="1000" y2="150" stroke="#1a1a1a" stroke-width="0.75" stroke-opacity="0.14" stroke-linecap="round"/><line x1="0" y1="200" x2="1000" y2="200" stroke="#1a1a1a" stroke-width="0.75" stroke-opacity="0.14" stroke-linecap="round"/><line x1="0" y1="250" x2="1000" y2="250" stroke="#1a1a1a" stroke-width="0.75" stroke-opacity="0.14" stroke-linecap="round"/><line x1="0" y1="300" x2="1000" y2="300" stroke="#1a1a1a" stroke-width="0.75" stroke-opacity="0.14" stroke-linecap="round"/><line x1="0" y1="350" x2="1000" y2="350" stroke="#1a1a1a" stroke-width="0.75" stroke-opacity="0.14" stroke-linecap="round"/><line x1="0" y1="400" x2="1000" y2="400" stroke="#1a1a1a" stroke-width="0.75" stroke-opacity="0.14" stroke-linecap="round"/><line x1="0" y1="450" x2="1000" y2="450" stroke="#1a1a1a" stroke-width="0.75" stroke-opacity="0.14" stroke-linecap="round"/><line x1="0" y1="500" x2="1000" y2="500" stroke="#1a1a1a" stroke-width="0.75" stroke-opacity="0.14" stroke-linecap="round"/><line x1="0" y1="550" x2="1000" y2="550" stroke="#1a1a1a" stroke-width="0.75" stroke-opacity="0.14" stroke-linecap="round"/><line x1="0" y1="600" x2="1000" y2="600" stroke="#1a1a1a" stroke-width="0.75" stroke-opacity="0.14" stroke-linecap="round"/><line x1="0" y1="650" x2="1000" y2="650" stroke="#1a1a1a" stroke-width="0.75" stroke-opacity="0.14" stroke-linecap="round"/><line x1="0" y1="700" x2="1000" y2="700" stroke="#1a1a1a" stroke-width="0.75" stroke-opacity="0.14" stroke-linecap="round"/><line x1="0" y1="750" x2="1000" y2="750" stroke="#1a1a1a" stroke-width="0.75" stroke-opacity="0.14" stroke-linecap="round"/><line x1="0" y1="800" x2="1000" y2="800" stroke="#1a1a1a" stroke-width="0.75" stroke-opacity="0.14" stroke-linecap="round"/><line x1="0" y1="850" x2="1000" y2="850" stroke="#1a1a1a" stroke-width="0.75" stroke-opacity="0.14" stroke-linecap="round"/><line x1="0" y1="900" x2="1000" y2="900" stroke="#1a1a1a" stroke-width="0.75" stroke-opacity="0.14" stroke-linecap="round"/><line x1="0" y1="950" x2="1000" y2="950" stroke="#1a1a1a" stroke-width="0.75" stroke-opacity="0.14" stroke-linecap="round"/><line x1="614" y1="0" x2="614" y2="392" stroke="#5a5a5a" stroke-width="5.5" stroke-opacity="0.7" stroke-linecap="round"/><line x1="1000" y1="392" x2="614" y2="392" stroke="#5a5a5a" stroke-width="5.5" stroke-opacity="0.7" stroke-linecap="round"/><line x1="614" y1="1000" x2="614" y2="392" stroke="#5a5a5a" stroke-width="5.5" stroke-opacity="0.7" stroke-linecap="round"/><line x1="0" y1="392" x2="614" y2="392" stroke="#5a5a5a" stroke-width="5.5" stroke-opacity="0.7" stroke-linecap="round"/><line x1="614" y1="392" x2="436" y2="175" stroke="#7a7a7a" stroke-width="3" stroke-opacity="0.7" stroke-linecap="round"/><line x1="614" y1="392" x2="545" y2="254" stroke="#7a7a7a" stroke-width="3" stroke-opacity="0.7" stroke-linecap="round"/><line x1="614" y1="392" x2="683" y2="254" stroke="#7a7a7a" stroke-width="3" stroke-opacity="0.7" stroke-linecap="round"/><line x1="614" y1="392" x2="821" y2="292" stroke="#7a7a7a" stroke-width="3" stroke-opacity="0.7" stroke-linecap="round"/><line x1="614" y1="392" x2="536" y2="330" stroke="#7a7a7a" stroke-width="3" stroke-opacity="0.7" stroke-linecap="round"/><line x1="614" y1="392" x2="545" y2="392" stroke="#7a7a7a" stroke-width="3" stroke-opacity="0.7" stroke-linecap="round"/><line x1="614" y1="392" x2="615" y2="391" stroke="#7a7a7a" stroke-width="3" stroke-opacity="0.7" stroke-linecap="round"/><line x1="614" y1="392" x2="821" y2="392" stroke="#7a7a7a" stroke-width="3" stroke-opacity="0.7" stroke-linecap="round"/><line x1="614" y1="392" x2="407" y2="530" stroke="#7a7a7a" stroke-width="3" stroke-opacity="0.7" stroke-linecap="round"/><line x1="614" y1="392" x2="545" y2="530" stroke="#7a7a7a" stroke-width="3" stroke-opacity="0.7" stroke-linecap="round"/><line x1="614" y1="392" x2="683" y2="530" stroke="#7a7a7a" stroke-width="3" stroke-opacity="0.7" stroke-linecap="round"/><line x1="436" y1="175" x2="821" y2="292" stroke="#7a7a7a" stroke-width="3" stroke-opacity="0.7" stroke-linecap="round"/><line x1="821" y1="292" x2="407" y2="530" stroke="#7a7a7a" stroke-width="3" stroke-opacity="0.7" stroke-linecap="round"/><line x1="821" y1="392" x2="436" y2="175" stroke="#7a7a7a" stroke-width="3" stroke-opacity="0.7" stroke-linecap="round"/><line x1="545" y1="254" x2="407" y2="530" stroke="#7a7a7a" stroke-width="3" stroke-opacity="0.7" stroke-linecap="round"/><line x1="615" y1="391" x2="821" y2="292" stroke="#7a7a7a" stroke-width="3" stroke-opacity="0.7" stroke-linecap="round"/><circle cx="614" cy="392" r="8" fill="#c8901a" stroke="#1a1a1a" stroke-width="2"/><polygon points="362.50970884811886,109.16320693098662 519.0122715679023,96.89760503916284 512,234 360,234" fill="#2f4fa8" fill-opacity="0.18" stroke="#2f4fa8" stroke-width="2" stroke-opacity="0.85"/><polygon points="469,195 621,195 621,313 469,313" fill="#7a5a2a" fill-opacity="0.18" stroke="#7a5a2a" stroke-width="2" stroke-opacity="0.85"/><polygon points="607,195 759,195 759,313 607,313" fill="#8a6f2a" fill-opacity="0.18" stroke="#8a6f2a" stroke-width="2" stroke-opacity="0.85"/><polygon points="745,233 897,233 897,357.99071715854956 745,357.99071715854956" fill="#b07f1a" fill-opacity="0.18" stroke="#b07f1a" stroke-width="2" stroke-opacity="0.85"/><polygon points="460,271 633.1465458372257,260.8365438611783 621.6543359616394,384.3599315533206 460,389" fill="#b07f1a" fill-opacity="0.18" stroke="#b07f1a" stroke-width="2" stroke-opacity="0.85"/><polygon points="460,271 633.1465458372257,260.8365438611783 621.6543359616394,384.3599315533206 460,389" fill="#b07f1a" fill-opacity="0.1" stroke="none"/><polygon points="469,333 621,333 621,451 469,451" fill="#2a6a6a" fill-opacity="0.18" stroke="#2a6a6a" stroke-width="2" stroke-opacity="0.85"/><polygon points="522.7036003335526,331.7603470637287 691,332 691,450 523.0714930369467,449.76575725054334" fill="#a86a10" fill-opacity="0.18" stroke="#a86a10" stroke-width="2" stroke-opacity="0.85"/><polygon points="745,333 897,333 897,451 745,451" fill="#c62828" fill-opacity="0.18" stroke="#c62828" stroke-width="2" stroke-opacity="0.85"/><polygon points="331,471 483,471 483,589 331,589" fill="#1f7a34" fill-opacity="0.18" stroke="#1f7a34" stroke-width="2" stroke-opacity="0.85"/><polygon points="469,471 621,471 621,589 469,589" fill="#3a3a3a" fill-opacity="0.18" stroke="#3a3a3a" stroke-width="2" stroke-opacity="0.85"/><polygon points="607,471 759,471 759,589 607,589" fill="#a85a1a" fill-opacity="0.18" stroke="#a85a1a" stroke-width="2" stroke-opacity="0.85"/><rect x="615" y="363" width="16" height="16" rx="3" fill="#ffffff" stroke="#a86a10" stroke-width="2"/><rect x="621" y="418" width="16" height="16" rx="3" fill="#ffffff" stroke="#a86a10" stroke-width="2"/><rect x="557" y="362" width="16" height="16" rx="3" fill="#ffffff" stroke="#a86a10" stroke-width="2"/><rect x="545" y="502" width="16" height="16" rx="3" fill="#ffffff" stroke="#3a3a3a" stroke-width="2"/><rect x="551" y="557" width="16" height="16" rx="3" fill="#ffffff" stroke="#3a3a3a" stroke-width="2"/><rect x="436" y="147" width="16" height="16" rx="3" fill="#ffffff" stroke="#2f4fa8" stroke-width="2"/><rect x="442" y="202" width="16" height="16" rx="3" fill="#ffffff" stroke="#2f4fa8" stroke-width="2"/><rect x="545" y="364" width="16" height="16" rx="3" fill="#ffffff" stroke="#2a6a6a" stroke-width="2"/><rect x="551" y="419" width="16" height="16" rx="3" fill="#ffffff" stroke="#2a6a6a" stroke-width="2"/><rect x="683" y="226" width="16" height="16" rx="3" fill="#ffffff" stroke="#8a6f2a" stroke-width="2"/><rect x="689" y="281" width="16" height="16" rx="3" fill="#ffffff" stroke="#8a6f2a" stroke-width="2"/><rect x="542" y="357" width="16" height="16" rx="3" fill="#ffffff" stroke="#b07f1a" stroke-width="2"/><rect x="478" y="301" width="16" height="16" rx="3" fill="#ffffff" stroke="#b07f1a" stroke-width="2"/><rect x="548" y="314" width="16" height="16" rx="3" fill="#ffffff" stroke="#b07f1a" stroke-width="2"/><rect x="514" y="357" width="16" height="16" rx="3" fill="#ffffff" stroke="#b07f1a" stroke-width="2"/><rect x="821" y="364" width="16" height="16" rx="3" fill="#ffffff" stroke="#c62828" stroke-width="2"/><rect x="545" y="226" width="16" height="16" rx="3" fill="#ffffff" stroke="#7a5a2a" stroke-width="2"/><rect x="507" y="272" width="16" height="16" rx="3" fill="#ffffff" stroke="#b07f1a" stroke-width="2"/><rect x="827" y="419" width="16" height="16" rx="3" fill="#ffffff" stroke="#c62828" stroke-width="2"/><rect x="763" y="363" width="16" height="16" rx="3" fill="#ffffff" stroke="#c62828" stroke-width="2"/><rect x="551" y="281" width="16" height="16" rx="3" fill="#ffffff" stroke="#7a5a2a" stroke-width="2"/><rect x="548" y="330" width="16" height="16" rx="3" fill="#ffffff" stroke="#b07f1a" stroke-width="2"/><rect x="60" y="946" width="44" height="9" fill="#1a1a1a" stroke="#1a1a1a" stroke-width="1"/><rect x="104" y="946" width="44" height="9" fill="#ffffff" stroke="#1a1a1a" stroke-width="1"/><rect x="148" y="946" width="44" height="9" fill="#1a1a1a" stroke="#1a1a1a" stroke-width="1"/><rect x="192" y="946" width="44" height="9" fill="#ffffff" stroke="#1a1a1a" stroke-width="1"/><rect x="236" y="946" width="44" height="9" fill="#1a1a1a" stroke="#1a1a1a" stroke-width="1"/></svg>