<svg xmlns="http://www.w3.org/2000/svg" viewBox="0 0 320 96" width="320" height="96" class="oc-ornament-svg" role="presentation" aria-hidden="true" focusable="false"><path d="M3 8 Q3 3 8 3 L312 3 Q317 3 317 8 L317 88 Q317 93 312 93 L8 93 Q3 93 3 88 Z" fill="none" stroke="#4A3B22" stroke-width="2" stroke-linecap="round" stroke-linejoin="round"/><path d="M12 93 L12 3 M308 3 L308 93" stroke="#C8B89A" stroke-width="1" fill="none"/><g transform="translate(6,6)"><g fill="none" stroke="#4A3B22" stroke-width="1.6" stroke-linecap="round" stroke-linejoin="round"><path d="M4 22 L4 4 L22 4"/><path d="M8 12 L12 8"/></g></g><g transform="translate(314,6) scale(-1,1)"><g fill="none" stroke="#4A3B22" stroke-width="1.6" stroke-linecap="round" stroke-linejoin="round"><path d="M4 22 L4 4 L22 4"/><path d="M8 12 L12 8"/></g></g><g transform="translate(314,90) scale(-1,-1)"><g fill="none" stroke="#4A3B22" stroke-width="1.6" stroke-linecap="round" stroke-linejoin="round"><path d="M4 22 L4 4 L22 4"/><path d="M8 12 L12 8"/></g></g><g transform="translate(6,90) scale(1,-1)"><g fill="none" stroke="#4A3B22" stroke-width="1.6" stroke-linecap="round" stroke-linejoin="round"><path d="M4 22 L4 4 L22 4"/><path d="M8 12 L12 8"/></g></g><circle cx="37" cy="48" r="23" fill="none" stroke="#C8B89A" stroke-width="1"/><g transform="translate(17,28) scale(0.8333)"><g fill="none" stroke="#4A3B22" stroke-width="2" stroke-linecap="round" stroke-linejoin="round"><path d="M24 34 L24 15"/><path d="M24 34 L18 17"/><path d="M24 34 L30 17"/><path d="M24 34 L14 22"/><path d="M24 34 L34 22"/><path d="M17 34 Q24 31 31 34"/><path d="M17 37 Q24 34 31 37"/></g></g></svg>
