<!-- settlementforge landing plate · seed lf-033 · style watercolor · Cnocby (pop 412) · generator 0.9.0 / simulation 1 -->
<svg xmlns="http://www.w3.org/2000/svg" width="720" height="720" viewBox="287 272.4 460 460"><rect x="287" y="272.4" width="460" height="460" fill="#f4efe4"/><line x1="507" y1="0" x2="507" y2="508" stroke="#9a8468" stroke-width="5" stroke-opacity="0.5" stroke-linecap="round"/><line x1="1000" y1="753" x2="507" y2="508" stroke="#9a8468" stroke-width="5" stroke-opacity="0.5" stroke-linecap="round"/><line x1="0" y1="753" x2="507" y2="508" stroke="#9a8468" stroke-width="5" stroke-opacity="0.5" stroke-linecap="round"/><line x1="507" y1="508" x2="517" y2="506" stroke="#b0a184" stroke-width="3" stroke-opacity="0.55" stroke-linecap="round"/><circle cx="507" cy="508" r="8" fill="#d8b25a" stroke="#4a4030" stroke-width="1.5"/><polygon points="448.6897423440623,596.1922184436557 595.8592963162932,605.8065321594229 624,399 410,399" fill="#a88a5a" fill-opacity="0.22" stroke="#a88a5a" stroke-width="1.25" stroke-opacity="0.34"/><rect x="517" y="478" width="16" height="16" rx="3" fill="#fbf8f0" stroke="#a88a5a" stroke-width="1.25"/><rect x="523" y="533" width="16" height="16" rx="3" fill="#fbf8f0" stroke="#a88a5a" stroke-width="1.25"/><rect x="459" y="477" width="16" height="16" rx="3" fill="#fbf8f0" stroke="#a88a5a" stroke-width="1.25"/><rect x="529" y="490" width="16" height="16" rx="3" fill="#fbf8f0" stroke="#a88a5a" stroke-width="1.25"/><rect x="495" y="533" width="16" height="16" rx="3" fill="#fbf8f0" stroke="#a88a5a" stroke-width="1.25"/><rect x="488" y="448" width="16" height="16" rx="3" fill="#fbf8f0" stroke="#a88a5a" stroke-width="1.25"/><rect x="529" y="506" width="16" height="16" rx="3" fill="#fbf8f0" stroke="#a88a5a" stroke-width="1.25"/><rect x="474" y="512" width="16" height="16" rx="3" fill="#fbf8f0" stroke="#a88a5a" stroke-width="1.25"/><rect x="530" y="448" width="16" height="16" rx="3" fill="#fbf8f0" stroke="#a88a5a" stroke-width="1.25"/><rect x="517" y="518" width="16" height="16" rx="3" fill="#fbf8f0" stroke="#a88a5a" stroke-width="1.25"/><rect x="474" y="484" width="16" height="16" rx="3" fill="#fbf8f0" stroke="#a88a5a" stroke-width="1.25"/><rect x="559" y="477" width="16" height="16" rx="3" fill="#fbf8f0" stroke="#a88a5a" stroke-width="1.25"/><rect x="501" y="518" width="16" height="16" rx="3" fill="#fbf8f0" stroke="#a88a5a" stroke-width="1.25"/><rect x="495" y="463" width="16" height="16" rx="3" fill="#fbf8f0" stroke="#a88a5a" stroke-width="1.25"/><rect x="559" y="519" width="16" height="16" rx="3" fill="#fbf8f0" stroke="#a88a5a" stroke-width="1.25"/><rect x="489" y="506" width="16" height="16" rx="3" fill="#fbf8f0" stroke="#a88a5a" stroke-width="1.25"/><rect x="523" y="463" width="16" height="16" rx="3" fill="#fbf8f0" stroke="#a88a5a" stroke-width="1.25"/><rect x="530" y="548" width="16" height="16" rx="3" fill="#fbf8f0" stroke="#a88a5a" stroke-width="1.25"/><rect x="489" y="490" width="16" height="16" rx="3" fill="#fbf8f0" stroke="#a88a5a" stroke-width="1.25"/><rect x="544" y="484" width="16" height="16" rx="3" fill="#fbf8f0" stroke="#a88a5a" stroke-width="1.25"/><rect x="488" y="548" width="16" height="16" rx="3" fill="#fbf8f0" stroke="#a88a5a" stroke-width="1.25"/><rect x="501" y="478" width="16" height="16" rx="3" fill="#fbf8f0" stroke="#a88a5a" stroke-width="1.25"/><rect x="544" y="512" width="16" height="16" rx="3" fill="#fbf8f0" stroke="#a88a5a" stroke-width="1.25"/><rect x="459" y="519" width="16" height="16" rx="3" fill="#fbf8f0" stroke="#a88a5a" stroke-width="1.25"/><rect x="517" y="478" width="16" height="16" rx="3" fill="#fbf8f0" stroke="#a88a5a" stroke-width="1.25"/><rect x="523" y="533" width="16" height="16" rx="3" fill="#fbf8f0" stroke="#a88a5a" stroke-width="1.25"/><rect x="459" y="477" width="16" height="16" rx="3" fill="#fbf8f0" stroke="#a88a5a" stroke-width="1.25"/><rect x="529" y="490" width="16" height="16" rx="3" fill="#fbf8f0" stroke="#a88a5a" stroke-width="1.25"/><rect x="495" y="533" width="16" height="16" rx="3" fill="#fbf8f0" stroke="#a88a5a" stroke-width="1.25"/><rect x="488" y="448" width="16" height="16" rx="3" fill="#fbf8f0" stroke="#a88a5a" stroke-width="1.25"/><rect x="529" y="506" width="16" height="16" rx="3" fill="#fbf8f0" stroke="#a88a5a" stroke-width="1.25"/><path d="M 673 71 L 682 87 L 664 87 Z" fill="#f3dede" stroke="#b04a44" stroke-width="1.5" stroke-linejoin="round"/><rect x="672" y="77" width="2" height="5" fill="#b04a44"/><rect x="672" y="83" width="2" height="2" fill="#b04a44"/><path d="M 956 490 L 965 506 L 947 506 Z" fill="#f3dede" stroke="#b04a44" stroke-width="1.5" stroke-linejoin="round"/><rect x="955" y="496" width="2" height="5" fill="#b04a44"/><rect x="955" y="502" width="2" height="2" fill="#b04a44"/><polygon points="295.28,280.67999999999995 738.72,280.67999999999995 738.72,724.12 295.28,724.12" fill="none" stroke="#4a4030" stroke-width="1.3800000000000001" stroke-opacity="0.85"/><polygon points="299.88,285.28 734.12,285.28 734.12,719.52 299.88,719.52" fill="none" stroke="#4a4030" stroke-width="0.46" stroke-opacity="0.6"/><circle cx="697.3199999999999" cy="682.72" r="28.52" fill="none" stroke="#4a4030" stroke-width="0.6900000000000001"/><circle cx="697.3199999999999" cy="682.72" r="24.84" fill="none" stroke="#4a4030" stroke-width="0.34500000000000003"/><path d="M 697.3199999999999 654.2 L 701.4599999999999 682.72 L 697.3199999999999 711.24 L 693.18 682.72 Z" fill="#d8b25a" stroke="#4a4030" stroke-width="0.34500000000000003" stroke-linejoin="round"/><path d="M 668.8 682.72 L 697.3199999999999 686.86 L 725.8399999999999 682.72 L 697.3199999999999 678.58 Z" fill="#4a4030" stroke-linejoin="round"/><circle cx="697.3199999999999" cy="682.72" r="1.84" fill="#d8b25a" stroke="#4a4030" stroke-width="0.34500000000000003"/></svg>