<!-- settlementforge landing plate CANDIDATE (W4 showcase) · seed lf-033 · style parchment · layout v2on (layoutLawVersion 2) · Cnocby (pop 412) · crop 460×460 @ 287,272.4 · generator 0.9.0 / simulation 1 -->
<svg xmlns="http://www.w3.org/2000/svg" width="720" height="720" viewBox="287 272.4 460 460"><rect x="287" y="272.4" width="460" height="460" fill="#fbf5e6"/><polyline points="150,915 266,935 382,863 498,925 614,926 730,901 846,873" fill="none" stroke="#2c2210" stroke-width="2.1" stroke-opacity="0.5" stroke-linecap="round" stroke-linejoin="round"/><line x1="167" y1="862" x2="169" y2="834" stroke="#2c2210" stroke-width="1.4" stroke-opacity="0.5" stroke-linecap="round"/><line x1="242" y1="871" x2="239" y2="843" stroke="#2c2210" stroke-width="1.4" stroke-opacity="0.5" stroke-linecap="round"/><line x1="305" y1="862" x2="299" y2="834" stroke="#2c2210" stroke-width="1.4" stroke-opacity="0.5" stroke-linecap="round"/><line x1="412" y1="877" x2="406" y2="849" stroke="#2c2210" stroke-width="1.4" stroke-opacity="0.5" stroke-linecap="round"/><line x1="508" y1="870" x2="503" y2="842" stroke="#2c2210" stroke-width="1.4" stroke-opacity="0.5" stroke-linecap="round"/><line x1="603" y1="870" x2="604" y2="842" stroke="#2c2210" stroke-width="1.4" stroke-opacity="0.5" stroke-linecap="round"/><line x1="650" y1="855" x2="637" y2="827" stroke="#2c2210" stroke-width="1.4" stroke-opacity="0.5" stroke-linecap="round"/><line x1="747" y1="849" x2="740" y2="821" stroke="#2c2210" stroke-width="1.4" stroke-opacity="0.5" stroke-linecap="round"/><line x1="157" y1="816" x2="150" y2="793" stroke="#2c2210" stroke-width="0.84" stroke-opacity="0.5" stroke-linecap="round"/><line x1="230" y1="825" x2="233" y2="802" stroke="#2c2210" stroke-width="0.84" stroke-opacity="0.5" stroke-linecap="round"/><line x1="345" y1="814" x2="334" y2="791" stroke="#2c2210" stroke-width="0.84" stroke-opacity="0.5" stroke-linecap="round"/><line x1="447" y1="816" x2="432" y2="793" stroke="#2c2210" stroke-width="0.84" stroke-opacity="0.5" stroke-linecap="round"/><line x1="567" y1="824" x2="552" y2="801" stroke="#2c2210" stroke-width="0.84" stroke-opacity="0.5" stroke-linecap="round"/><line x1="617" y1="806" x2="618" y2="783" stroke="#2c2210" stroke-width="0.84" stroke-opacity="0.5" stroke-linecap="round"/><line x1="762" y1="798" x2="761" y2="775" stroke="#2c2210" stroke-width="0.84" stroke-opacity="0.5" stroke-linecap="round"/><line x1="161" y1="757" x2="160" y2="739" stroke="#2c2210" stroke-width="0.84" stroke-opacity="0.5" stroke-linecap="round"/><line x1="272" y1="767" x2="265" y2="749" stroke="#2c2210" stroke-width="0.84" stroke-opacity="0.5" stroke-linecap="round"/><line x1="381" y1="761" x2="382" y2="743" stroke="#2c2210" stroke-width="0.84" stroke-opacity="0.5" stroke-linecap="round"/><line x1="479" y1="749" x2="475" y2="731" stroke="#2c2210" stroke-width="0.84" stroke-opacity="0.5" stroke-linecap="round"/><line x1="588" y1="758" x2="585" y2="740" stroke="#2c2210" stroke-width="0.84" stroke-opacity="0.5" stroke-linecap="round"/><line x1="716" y1="758" x2="704" y2="740" stroke="#2c2210" stroke-width="0.84" stroke-opacity="0.5" stroke-linecap="round"/><line x1="170" y1="701" x2="155" y2="688" stroke="#2c2210" stroke-width="0.84" stroke-opacity="0.5" stroke-linecap="round"/><line x1="312" y1="694" x2="303" y2="681" stroke="#2c2210" stroke-width="0.84" stroke-opacity="0.5" stroke-linecap="round"/><line x1="440" y1="695" x2="438" y2="682" stroke="#2c2210" stroke-width="0.84" stroke-opacity="0.5" stroke-linecap="round"/><line x1="550" y1="710" x2="538" y2="697" stroke="#2c2210" stroke-width="0.84" stroke-opacity="0.5" stroke-linecap="round"/><line x1="696" y1="693" x2="690" y2="680" stroke="#2c2210" stroke-width="0.84" stroke-opacity="0.5" stroke-linecap="round"/><line x1="507" y1="0" x2="507" y2="508" stroke="#6b5340" stroke-width="5" stroke-opacity="0.5" stroke-linecap="round"/><line x1="1000" y1="753" x2="507" y2="508" stroke="#6b5340" stroke-width="5" stroke-opacity="0.5" stroke-linecap="round"/><line x1="0" y1="753" x2="507" y2="508" stroke="#6b5340" stroke-width="5" stroke-opacity="0.5" stroke-linecap="round"/><line x1="507" y1="508" x2="517" y2="506" stroke="#8a7250" stroke-width="3" stroke-opacity="0.55" stroke-linecap="round"/><circle cx="507" cy="508" r="8" fill="#c9a24c" stroke="#2c2210" stroke-width="1.5"/><polygon points="448.6897423440623,596.1922184436557 595.8592963162932,605.8065321594229 624,399 410,399" fill="#7a5a2a" fill-opacity="0.14" stroke="#7a5a2a" stroke-width="1.5" stroke-opacity="0.45"/><rect x="517" y="478" width="16" height="16" rx="3" fill="#fffbf5" stroke="#7a5a2a" stroke-width="1.5"/><rect x="523" y="533" width="16" height="16" rx="3" fill="#fffbf5" stroke="#7a5a2a" stroke-width="1.5"/><rect x="459" y="477" width="16" height="16" rx="3" fill="#fffbf5" stroke="#7a5a2a" stroke-width="1.5"/><rect x="529" y="490" width="16" height="16" rx="3" fill="#fffbf5" stroke="#7a5a2a" stroke-width="1.5"/><rect x="495" y="533" width="16" height="16" rx="3" fill="#fffbf5" stroke="#7a5a2a" stroke-width="1.5"/><rect x="488" y="448" width="16" height="16" rx="3" fill="#fffbf5" stroke="#7a5a2a" stroke-width="1.5"/><rect x="529" y="506" width="16" height="16" rx="3" fill="#fffbf5" stroke="#7a5a2a" stroke-width="1.5"/><rect x="474" y="512" width="16" height="16" rx="3" fill="#fffbf5" stroke="#7a5a2a" stroke-width="1.5"/><rect x="530" y="448" width="16" height="16" rx="3" fill="#fffbf5" stroke="#7a5a2a" stroke-width="1.5"/><rect x="517" y="518" width="16" height="16" rx="3" fill="#fffbf5" stroke="#7a5a2a" stroke-width="1.5"/><rect x="474" y="484" width="16" height="16" rx="3" fill="#fffbf5" stroke="#7a5a2a" stroke-width="1.5"/><rect x="559" y="477" width="16" height="16" rx="3" fill="#fffbf5" stroke="#7a5a2a" stroke-width="1.5"/><rect x="501" y="518" width="16" height="16" rx="3" fill="#fffbf5" stroke="#7a5a2a" stroke-width="1.5"/><rect x="495" y="463" width="16" height="16" rx="3" fill="#fffbf5" stroke="#7a5a2a" stroke-width="1.5"/><rect x="559" y="519" width="16" height="16" rx="3" fill="#fffbf5" stroke="#7a5a2a" stroke-width="1.5"/><rect x="489" y="506" width="16" height="16" rx="3" fill="#fffbf5" stroke="#7a5a2a" stroke-width="1.5"/><rect x="523" y="463" width="16" height="16" rx="3" fill="#fffbf5" stroke="#7a5a2a" stroke-width="1.5"/><rect x="530" y="548" width="16" height="16" rx="3" fill="#fffbf5" stroke="#7a5a2a" stroke-width="1.5"/><rect x="489" y="490" width="16" height="16" rx="3" fill="#fffbf5" stroke="#7a5a2a" stroke-width="1.5"/><rect x="544" y="484" width="16" height="16" rx="3" fill="#fffbf5" stroke="#7a5a2a" stroke-width="1.5"/><rect x="488" y="548" width="16" height="16" rx="3" fill="#fffbf5" stroke="#7a5a2a" stroke-width="1.5"/><rect x="501" y="478" width="16" height="16" rx="3" fill="#fffbf5" stroke="#7a5a2a" stroke-width="1.5"/><rect x="544" y="512" width="16" height="16" rx="3" fill="#fffbf5" stroke="#7a5a2a" stroke-width="1.5"/><rect x="459" y="519" width="16" height="16" rx="3" fill="#fffbf5" stroke="#7a5a2a" stroke-width="1.5"/><rect x="517" y="478" width="16" height="16" rx="3" fill="#fffbf5" stroke="#7a5a2a" stroke-width="1.5"/><rect x="523" y="533" width="16" height="16" rx="3" fill="#fffbf5" stroke="#7a5a2a" stroke-width="1.5"/><rect x="459" y="477" width="16" height="16" rx="3" fill="#fffbf5" stroke="#7a5a2a" stroke-width="1.5"/><rect x="529" y="490" width="16" height="16" rx="3" fill="#fffbf5" stroke="#7a5a2a" stroke-width="1.5"/><rect x="495" y="533" width="16" height="16" rx="3" fill="#fffbf5" stroke="#7a5a2a" stroke-width="1.5"/><rect x="488" y="448" width="16" height="16" rx="3" fill="#fffbf5" stroke="#7a5a2a" stroke-width="1.5"/><rect x="529" y="506" width="16" height="16" rx="3" fill="#fffbf5" stroke="#7a5a2a" stroke-width="1.5"/><path d="M 673 71 L 682 87 L 664 87 Z" fill="#fde8e8" stroke="#8b1a1a" stroke-width="1.5" stroke-linejoin="round"/><rect x="672" y="77" width="2" height="5" fill="#8b1a1a"/><rect x="672" y="83" width="2" height="2" fill="#8b1a1a"/><path d="M 956 490 L 965 506 L 947 506 Z" fill="#fde8e8" stroke="#8b1a1a" stroke-width="1.5" stroke-linejoin="round"/><rect x="955" y="496" width="2" height="5" fill="#8b1a1a"/><rect x="955" y="502" width="2" height="2" fill="#8b1a1a"/><polygon points="295.28,280.67999999999995 738.72,280.67999999999995 738.72,724.12 295.28,724.12" fill="none" stroke="#2c2210" stroke-width="1.3800000000000001" stroke-opacity="0.85"/><polygon points="299.88,285.28 734.12,285.28 734.12,719.52 299.88,719.52" fill="none" stroke="#2c2210" stroke-width="0.46" stroke-opacity="0.6"/><circle cx="697.3199999999999" cy="682.72" r="28.52" fill="none" stroke="#2c2210" stroke-width="0.6900000000000001"/><circle cx="697.3199999999999" cy="682.72" r="24.84" fill="none" stroke="#2c2210" stroke-width="0.34500000000000003"/><path d="M 697.3199999999999 654.2 L 701.4599999999999 682.72 L 697.3199999999999 711.24 L 693.18 682.72 Z" fill="#c9a24c" stroke="#2c2210" stroke-width="0.34500000000000003" stroke-linejoin="round"/><path d="M 668.8 682.72 L 697.3199999999999 686.86 L 725.8399999999999 682.72 L 697.3199999999999 678.58 Z" fill="#2c2210" stroke-linejoin="round"/><circle cx="697.3199999999999" cy="682.72" r="1.84" fill="#c9a24c" stroke="#2c2210" stroke-width="0.34500000000000003"/></svg>