<!-- settlementforge realm preview CANDIDATE (W7 realm renderer) · seed cindermere · style watercolor · realm medium · map kind volcano · 9 settlements · 8 roads · src/domain/realmMap/realmPlateRenderer.js (deterministic, headless) -->
<svg xmlns="http://www.w3.org/2000/svg" width="1200" height="672" viewBox="0 0 1000 560"><rect x="0" y="0" width="1000" height="560" fill="#f4efe4"/><polyline points="937,233 897,317 817,369 757,408 714,461 656,513 582,554 499,543 430,496 339,476 224,440 146,349 111,233 102,105 167,-6 283,-66 395,-92 501,-72 582,-29 653,-34 746,-51 829,-14 885,58 927,141 937,233" fill="none" stroke="#6f9bb3" stroke-width="1" stroke-opacity="0.39" stroke-linecap="round" stroke-linejoin="round"/><polyline points="950,233 909,321 829,375 766,417 720,473 660,525 582,567 495,555 423,508 330,485 212,446 134,353 98,233 90,101 155,-13 274,-75 388,-104 497,-84 582,-42 657,-46 752,-63 838,-23 897,51 939,137 950,233" fill="none" stroke="#6f9bb3" stroke-width="1" stroke-opacity="0.28" stroke-linecap="round" stroke-linejoin="round"/><polyline points="963,233 922,324 840,382 776,427 727,484 663,538 582,580 492,568 417,519 320,495 201,453 121,356 85,233 77,98 144,-19 264,-85 382,-115 494,-97 582,-55 660,-59 759,-74 848,-33 908,45 952,134 963,233" fill="none" stroke="#6f9bb3" stroke-width="1" stroke-opacity="0.17" stroke-linecap="round" stroke-linejoin="round"/><polygon points="924,233 884,314 806,362 748,399 707,450 653,500 582,541 502,530 436,485 348,467 235,433 159,346 124,233 115,108 178,0 292,-57 401,-81 504,-59 582,-16 650,-21 739,-40 820,-5 874,64 914,144" fill="#fbf8f0" fill-opacity="0.42" stroke="#4a4030" stroke-width="2.5" stroke-opacity="0.5"/><path d="M 515 240 L 527 229 L 539 236 L 551 229 L 563 240" fill="none" stroke="#4a4030" stroke-width="1.4" stroke-linejoin="round"/><line x1="527" y1="229" x2="534" y2="236" stroke="#4a4030" stroke-width="0.9" stroke-opacity="0.5" stroke-linecap="round"/><line x1="551" y1="229" x2="544" y2="236" stroke="#4a4030" stroke-width="0.9" stroke-opacity="0.5" stroke-linecap="round"/><path d="M 531 294 L 543 284 L 555 290 L 567 284 L 579 294" fill="none" stroke="#4a4030" stroke-width="1.4" stroke-linejoin="round"/><line x1="543" y1="284" x2="550" y2="290" stroke="#4a4030" stroke-width="0.9" stroke-opacity="0.5" stroke-linecap="round"/><line x1="567" y1="284" x2="560" y2="290" stroke="#4a4030" stroke-width="0.9" stroke-opacity="0.5" stroke-linecap="round"/><path d="M 500 256 L 508 240 L 516 250 L 524 240 L 532 256" fill="none" stroke="#4a4030" stroke-width="1.4" stroke-linejoin="round"/><line x1="508" y1="240" x2="513" y2="250" stroke="#4a4030" stroke-width="0.9" stroke-opacity="0.5" stroke-linecap="round"/><line x1="524" y1="240" x2="519" y2="250" stroke="#4a4030" stroke-width="0.9" stroke-opacity="0.5" stroke-linecap="round"/><line x1="500" y1="280" x2="466" y2="362" stroke="#9a8468" stroke-width="1.6" stroke-opacity="0.5" stroke-linecap="round"/><line x1="466" y1="362" x2="555" y2="421" stroke="#9a8468" stroke-width="1.6" stroke-opacity="0.5" stroke-linecap="round"/><line x1="500" y1="280" x2="618" y2="180" stroke="#9a8468" stroke-width="1.6" stroke-opacity="0.5" stroke-linecap="round"/><line x1="618" y1="180" x2="673" y2="224" stroke="#9a8468" stroke-width="1.6" stroke-opacity="0.5" stroke-linecap="round"/><line x1="673" y1="224" x2="682" y2="220" stroke="#9a8468" stroke-width="1.6" stroke-opacity="0.5" stroke-linecap="round"/><line x1="682" y1="220" x2="707" y2="118" stroke="#9a8468" stroke-width="1.6" stroke-opacity="0.5" stroke-linecap="round"/><line x1="707" y1="118" x2="817" y2="142" stroke="#9a8468" stroke-width="1.6" stroke-opacity="0.5" stroke-linecap="round"/><line x1="500" y1="280" x2="222" y2="152" stroke="#9a8468" stroke-width="1.6" stroke-opacity="0.5" stroke-linecap="round"/><circle cx="222" cy="152" r="3.5" fill="#fbf8f0" stroke="#4a4030" stroke-width="1.3"/><circle cx="673" cy="224" r="4" fill="#fbf8f0" stroke="#4a4030" stroke-width="1.3"/><circle cx="555" cy="421" r="4" fill="#fbf8f0" stroke="#4a4030" stroke-width="1.3"/><circle cx="682" cy="220" r="5.5" fill="#fbf8f0" stroke="#4a4030" stroke-width="1.3"/><circle cx="466" cy="362" r="5.5" fill="#fbf8f0" stroke="#4a4030" stroke-width="1.3"/><circle cx="618" cy="180" r="5.5" fill="#fbf8f0" stroke="#4a4030" stroke-width="1.3"/><circle cx="817" cy="142" r="11" fill="#fbf8f0" stroke="#4a4030" stroke-width="1.2"/><circle cx="817" cy="142" r="8" fill="#fbf8f0" stroke="#4a4030" stroke-width="1.3"/><circle cx="707" cy="118" r="11" fill="#fbf8f0" stroke="#4a4030" stroke-width="1.2"/><circle cx="707" cy="118" r="8" fill="#fbf8f0" stroke="#4a4030" stroke-width="1.3"/><circle cx="500" cy="280" r="13" fill="#fbf8f0" stroke="#4a4030" stroke-width="1.2"/><circle cx="500" cy="280" r="10" fill="#d8b25a" stroke="#4a4030" stroke-width="1.3"/><rect x="499" y="265" width="2" height="3" fill="#4a4030"/><rect x="499" y="292" width="2" height="3" fill="#4a4030"/><rect x="485" y="279" width="3" height="2" fill="#4a4030"/><rect x="512" y="279" width="3" height="2" fill="#4a4030"/><path d="M 500 273.8 L 504.38 275.62 L 506.2 280 L 504.38 284.38 L 500 286.2 L 495.62 284.38 L 493.8 280 L 495.62 275.62 Z" fill="#4a4030" stroke-linejoin="round"/><polygon points="14,14 986,14 986,546 14,546" fill="none" stroke="#4a4030" stroke-width="2.5" stroke-opacity="0.85"/><polygon points="22,22 978,22 978,538 22,538" fill="none" stroke="#4a4030" stroke-width="1" stroke-opacity="0.6"/><circle cx="926" cy="484" r="40" fill="none" stroke="#4a4030" stroke-width="1.4"/><circle cx="926" cy="484" r="34" fill="none" stroke="#4a4030" stroke-width="0.75"/><path d="M 926 444 L 933 484 L 926 524 L 919 484 Z" fill="#d8b25a" stroke="#4a4030" stroke-width="0.75" stroke-linejoin="round"/><path d="M 886 484 L 926 491 L 966 484 L 926 477 Z" fill="#4a4030" stroke-linejoin="round"/><circle cx="926" cy="484" r="3" fill="#d8b25a" stroke="#4a4030" stroke-width="0.75"/></svg>